<svg version="1.1" id="Layer_1" xmlns="http://www.w3.org/2000/svg" xmlns:xlink="http://www.w3.org/1999/xlink" x="0px" y="0px" viewBox="0 0 105.2 105.2" style="enable-background:new 0 0 105.2 105.2;" xml:space="preserve">
 <style type="text/css">
  .st0{fill:#E75730;}
	.st1{fill:#FFFFFF;}
 </style>
 <g>
  <rect class="st0" width="105.2" height="105.2">
  </rect>
  <path class="st1" d="M50.7,34.9c-0.3-2.2-1.1-4.5-1.3-4.8c-0.1-0.3-0.9-2.6-1.9-4.5c0.3,2.2,1.1,4.5,1.3,4.8
		C48.9,30.7,49.6,33,50.7,34.9 M40.5,34.6c-0.3,0-0.6-0.3-0.6-0.6c0-0.3,0.3-0.6,0.6-0.6c0.3,0,0.6,0.3,0.6,0.6
		C41.1,34.4,40.9,34.6,40.5,34.6 M42.7,52.6c-0.3,0-0.7,0-0.9-0.3c-0.1-0.1-0.1-0.2-0.1-0.4c0,0,0-0.1,0-0.1c-0.9-4.9-0.9-10-0.1-15
		c0-0.3,0.1-0.6,0.3-0.8c0.2-0.1,0.4-0.2,0.6-0.2c3.4-0.1,6.8,0.5,10.1,1.7C50,35.8,47,34.8,44,34.7c-0.6,0-1.3-0.1-1.7-0.6
		c-0.2-0.3-0.2-0.6-0.3-0.9c-0.3-0.8-0.9-1.5-1.7-1.7c0.9,0.2,1.8,0.9,2.2,1.8c0.1,0.2,0.3,0.3,0.5,0.2c0.7-0.4,1.5-0.4,2.2-0.6
		c0.9-0.3,1.8-1,1.7-1.9l-3.6,1.2L45,31l0,0c0.1,0,0.2-0.1,0.2-0.1c0.6-0.4,1.1-1.3,0.7-2l-3.2,2.2l1.4-1.5l0,0c0,0,0.1-0.1,0.1-0.1
		c0.5-0.6,0.8-1.6,0.3-2.1l-2.6,2.9l1-1.8l0,0c0-0.1,0.1-0.1,0.1-0.2c0.3-0.7,0.4-1.7-0.3-2.1l-1.8,3.6l0.5-1.8l0,0
		c0-0.1,0.1-0.3,0.1-0.5c0.2-0.8,0-1.8-0.7-2l-0.9,3.9l0-2.1l0,0c0-0.1,0-0.1,0-0.2c0-0.8-0.5-1.7-1.2-1.7l0,4.1l-0.4-2l0,0.1
		c0-0.1,0-0.2-0.1-0.3c-0.2-0.8-0.8-1.5-1.5-1.4l0.9,3.9l-0.9-1.8l0,0c-0.1-0.1-0.1-0.2-0.2-0.3c-0.4-0.7-1.1-1.2-1.8-0.9l1.8,3.6
		l-1-1.2l0,0c-0.1-0.2-0.3-0.4-0.4-0.5c-0.5-0.6-1.4-0.9-2-0.4l2.6,2.9L34.2,30l0,0c-0.1-0.1-0.2-0.2-0.3-0.2
		c-0.6-0.4-1.6-0.5-2,0.1l3.2,2.2l-2-0.8l0,0c0,0-0.1,0-0.1,0c-0.7-0.2-1.6-0.1-1.9,0.6c1,0.6,2.2,0.7,3.3,1.1
		c1.3,0.5,2.6,1.7,2.1,3.2c-0.2,0.6-0.5,1.1-1,1.4c-1.1,0.7-2.3,0.7-3.6,0.6c-2-0.1-4-0.3-6-0.6c-3.2-0.5-6.7-1.3-9.1-3.9
		c-0.1-0.1-0.2-0.2-0.2-0.3c0.6,2.2,2.2,4,4.1,5.1c1.9,1.1,4.1,1.6,6.3,1.7c-3.6,0.6-7.5-0.8-10.1-3.6c0.3,0.9,0.8,1.7,1.3,2.4
		c1.1,1.6,2.8,3.2,2.8,3.2l0,0c0,0,0,0-0.1,0c2.4,2.4,5.9,3.4,9.1,2.7c-1.1,0.6-2.3,0.8-3.4,0.8l0,0c-0.2,0-0.7-0.1-0.9-0.1
		c-0.3-0.1-0.6-0.1-0.6-0.1l0,0c0,0,0,0,0,0c0,0,0.1,0,0.1,0.1c0.2,0.2,1,0.8,2.2,1.3c0,0,0,0,0,0c2.2,0.9,5.5,1.5,5.5,1.5
		c5.4,3.1,10,8,12.9,13.7c-0.4-2.1-1.3-4.1-2.6-5.7c1.5,1.3,2.7,2.9,3.6,4.8c0,0,0.4-0.4,1-0.9l4.8-4.5
		C49.7,53.7,46.2,52.6,42.7,52.6 M51.8,35.5c-0.1-3.2-0.7-6.5-0.8-6.9c-0.1-0.5-0.6-3.8-1.5-6.8c0.1,3.2,0.7,6.5,0.8,6.9
		C50.4,29.2,50.9,32.5,51.8,35.5 M64.7,34.6c-0.3,0-0.6-0.3-0.6-0.6c0-0.3,0.3-0.6,0.6-0.6c0.3,0,0.6,0.3,0.6,0.6
		C65.3,34.4,65,34.6,64.7,34.6 M78.1,40.3c2.2-0.1,4.4-0.5,6.3-1.7c1.8-1.1,3.5-2.9,4.1-5.1c-0.1,0.1-0.2,0.2-0.2,0.3
		c-2.3,2.6-5.8,3.4-9.1,3.9c-2,0.3-4,0.5-6,0.6c-1.2,0.1-2.5,0.1-3.6-0.6c-0.5-0.3-0.9-0.8-1-1.4c-0.4-1.6,0.8-2.7,2.1-3.2
		c1.1-0.4,2.3-0.5,3.3-1.1c-0.3-0.7-1.2-0.9-1.9-0.6c-0.7,0.2-1.3,0.7-2.1,0.8l3.2-2.2c-0.4-0.6-1.4-0.5-2-0.1
		c-0.6,0.4-1.1,1-1.8,1.3l2.6-2.9c-0.6-0.5-1.5-0.2-2,0.4c-0.5,0.6-0.9,1.3-1.5,1.7l1.8-3.6c-0.7-0.3-1.4,0.2-1.8,0.9
		c-0.4,0.7-0.5,1.5-1,2.1l0.9-3.9c-0.7-0.2-1.3,0.6-1.5,1.4c-0.2,0.8-0.2,1.6-0.5,2.3l0-4.1c-0.7,0-1.1,0.9-1.2,1.7
		c0,0.8,0.2,1.5,0,2.3l-0.9-3.8c-0.7,0.2-0.9,1.2-0.7,2c0.2,0.8,0.6,1.5,0.6,2.3l-1.8-3.6c-0.6,0.4-0.6,1.4-0.3,2.1
		c0.3,0.7,0.9,1.3,1.1,2l-2.6-2.9c-0.5,0.6-0.2,1.5,0.2,2.1c0.5,0.6,1.2,1,1.5,1.7l-3.2-2.2c-0.4,0.7,0.1,1.5,0.7,2
		c0.6,0.4,1.3,0.7,1.8,1.2l-3.6-1.2c-0.1,1,0.8,1.7,1.7,1.9c0.7,0.2,1.6,0.3,2.2,0.6c0.2,0.1,0.4,0,0.5-0.2c0.4-0.9,1.3-1.6,2.2-1.8
		c-0.8,0.3-1.4,0.9-1.7,1.7c-0.1,0.3-0.1,0.6-0.3,0.9c-0.4,0.5-1.1,0.6-1.7,0.6c-3,0.1-6,1.1-8.6,2.8c3.2-1.2,6.6-1.8,10.1-1.7
		c0.2,0,0.5,0,0.6,0.2c0.2,0.2,0.3,0.5,0.3,0.8c0.8,4.9,0.8,10-0.1,15c0,0,0,0.1,0,0.1c0,0.1-0.1,0.3-0.1,0.4
		c-0.2,0.3-0.6,0.3-0.9,0.3c-3.5,0-6.9,1.2-9.9,3.2l0,0l4.1,3.9l0,0c0.9,0.8,1.6,1.5,1.6,1.5c0.8-1.9,2-3.5,3.6-4.8
		c-1.3,1.6-2.2,3.6-2.6,5.7c3-5.8,7.5-10.6,12.9-13.7h0c0,0,2.7-0.5,4.9-1.2c1.9-0.6,2.9-1.6,2.9-1.6c-0.2,0.1-0.4,0.1-0.6,0.1
		c-0.1,0-0.1,0-0.2,0c-0.1,0-0.2,0-0.4,0.1c-0.1,0-0.1,0-0.2,0c-1.3,0.1-2.5-0.1-3.6-0.8c3.2,0.8,6.7-0.3,9.1-2.7c0,0,1.8-1.8,3-3.5
		l0,0c0.5-0.6,0.8-1.4,1.1-2.1C85.7,39.5,81.8,40.9,78.1,40.3 M56.5,30.4c0.1-0.3,0.9-2.6,1.3-4.8c-1.1,2-1.8,4.2-1.9,4.5
		c-0.1,0.3-0.9,2.6-1.3,4.8C55.6,33,56.4,30.7,56.5,30.4 M52.6,36c0.4-4.5,0.4-8.3,0.4-9c0-0.7,0-5.8-0.4-10.2
		c-0.4,4.5-0.4,9.5-0.4,10.2C52.3,27.7,52.2,31.5,52.6,36 M53.5,35.9c1.2-4.6,2.1-9.2,2.3-14C54.5,26.5,53.7,31.1,53.5,35.9">
  </path>
  <path class="st1" d="M47.6,79.1v-0.8c0,0-13.9,0-18.6,0.1c-1.7,0-6.9,0.3-6.9,0.3S27.3,79,29,79C33.7,79.1,47.6,79.1,47.6,79.1">
  </path>
  <path class="st1" d="M58,79.1v-0.8c0,0,13.9,0,18.6,0.1c1.7,0,6.9,0.3,6.9,0.3S78.3,79,76.5,79C71.9,79.1,58,79.1,58,79.1">
  </path>
  <path class="st1" d="M33.1,74.7c-0.4,0-0.7-0.1-0.9-0.2c-0.3-0.1-0.5-0.3-0.7-0.5c-0.2-0.2-0.3-0.4-0.4-0.7
		C31,73.1,31,72.8,31,72.5V69h0.8v3.4c0,0.6,0.1,1,0.4,1.2c0.2,0.3,0.6,0.4,1,0.4c0.2,0,0.4,0,0.5-0.1c0.2-0.1,0.3-0.2,0.4-0.3
		c0.1-0.1,0.2-0.3,0.3-0.5c0.1-0.2,0.1-0.4,0.1-0.7V69h0.8v3.5c0,0.3,0,0.6-0.1,0.9c-0.1,0.3-0.2,0.5-0.4,0.7
		c-0.2,0.2-0.4,0.4-0.7,0.5C33.8,74.6,33.5,74.7,33.1,74.7">
  </path>
  <path class="st1" d="M40.3,74.6c-0.1-0.2-0.3-0.4-0.4-0.7c-0.2-0.2-0.3-0.5-0.5-0.8c-0.2-0.3-0.4-0.5-0.6-0.8
		c-0.2-0.3-0.4-0.5-0.6-0.8c-0.2-0.3-0.4-0.5-0.5-0.7c-0.2-0.2-0.3-0.4-0.5-0.6v4.4h-0.8V69h0.6c0.3,0.3,0.5,0.6,0.8,0.9
		c0.3,0.4,0.6,0.7,0.9,1.1c0.3,0.4,0.5,0.8,0.8,1.1c0.2,0.4,0.5,0.7,0.6,1V69H41v5.6H40.3z">
  </path>
  <rect x="42.3" y="69" class="st1" width="0.8" height="5.6">
  </rect>
  <path class="st1" d="M48.9,69c-0.2,0.6-0.4,1.1-0.6,1.6c-0.2,0.5-0.4,1-0.5,1.4c-0.2,0.5-0.4,0.9-0.5,1.3c-0.2,0.4-0.4,0.8-0.5,1.2
		H46c-0.2-0.4-0.4-0.8-0.5-1.2c-0.2-0.4-0.4-0.8-0.5-1.3c-0.2-0.4-0.4-0.9-0.6-1.4c-0.2-0.5-0.4-1-0.6-1.6h0.9
		c0.3,0.8,0.6,1.7,0.9,2.4c0.3,0.8,0.6,1.5,0.9,2.2c0.3-0.7,0.6-1.4,0.9-2.2c0.3-0.8,0.6-1.6,0.8-2.5H48.9z">
  </path>
  <polygon class="st1" points="49.6,74.6 49.6,69 53,69 53,69.7 50.4,69.7 50.4,71.3 52.7,71.3 52.7,72 50.4,72 50.4,73.9 53.2,73.9 
		53.2,74.6 	">
  </polygon>
  <path class="st1" d="M55.7,69.6c-0.3,0-0.6,0-0.8,0v2.1h0.6c0.3,0,0.5,0,0.7,0c0.2,0,0.4-0.1,0.5-0.2c0.1-0.1,0.3-0.2,0.3-0.3
		c0.1-0.1,0.1-0.3,0.1-0.5c0-0.2,0-0.4-0.1-0.5c-0.1-0.1-0.2-0.2-0.3-0.3c-0.1-0.1-0.3-0.1-0.5-0.2S55.9,69.6,55.7,69.6 M56.9,72.2
		c0.1,0.1,0.2,0.2,0.3,0.4c0.1,0.2,0.3,0.4,0.4,0.6c0.1,0.2,0.3,0.4,0.4,0.7c0.1,0.2,0.3,0.5,0.3,0.7h-0.9c-0.1-0.2-0.2-0.4-0.4-0.6
		c-0.1-0.2-0.3-0.4-0.4-0.6c-0.1-0.2-0.3-0.4-0.4-0.5c-0.1-0.2-0.2-0.3-0.3-0.4c-0.1,0-0.1,0-0.2,0h-0.2h-0.7v2.2h-0.8v-5.5
		c0.2-0.1,0.5-0.1,0.7-0.1c0.3,0,0.5,0,0.7,0c0.8,0,1.4,0.1,1.8,0.4c0.4,0.3,0.6,0.7,0.6,1.3c0,0.4-0.1,0.7-0.3,0.9
		C57.5,71.9,57.3,72.1,56.9,72.2">
  </path>
  <path class="st1" d="M60.4,74c0.8,0,1.2-0.3,1.2-0.8c0-0.2,0-0.3-0.1-0.4c-0.1-0.1-0.2-0.2-0.3-0.3c-0.1-0.1-0.3-0.2-0.4-0.2
		c-0.2-0.1-0.3-0.1-0.5-0.2c-0.2-0.1-0.4-0.1-0.6-0.2c-0.2-0.1-0.3-0.2-0.5-0.3C59.1,71.3,59,71.2,59,71c-0.1-0.2-0.1-0.4-0.1-0.6
		c0-0.5,0.2-0.9,0.5-1.1c0.3-0.3,0.8-0.4,1.4-0.4c0.3,0,0.6,0,0.9,0.1c0.3,0.1,0.5,0.2,0.6,0.2L62,69.9c-0.1-0.1-0.3-0.1-0.5-0.2
		c-0.2-0.1-0.5-0.1-0.8-0.1c-0.1,0-0.3,0-0.4,0c-0.1,0-0.2,0.1-0.3,0.1c-0.1,0.1-0.2,0.1-0.2,0.2c-0.1,0.1-0.1,0.2-0.1,0.3
		c0,0.2,0,0.3,0.1,0.4c0.1,0.1,0.1,0.2,0.2,0.3c0.1,0.1,0.2,0.1,0.4,0.2c0.1,0.1,0.3,0.1,0.5,0.2c0.2,0.1,0.5,0.2,0.7,0.3
		c0.2,0.1,0.4,0.2,0.5,0.3c0.1,0.1,0.3,0.3,0.3,0.5c0.1,0.2,0.1,0.4,0.1,0.7c0,0.5-0.2,0.9-0.5,1.1c-0.4,0.3-0.9,0.4-1.5,0.4
		c-0.2,0-0.4,0-0.6,0c-0.2,0-0.3-0.1-0.5-0.1c-0.1,0-0.3-0.1-0.4-0.1c-0.1,0-0.2-0.1-0.2-0.1l0.2-0.6c0.1,0.1,0.3,0.1,0.6,0.2
		C59.8,74,60.1,74,60.4,74">
  </path>
  <rect x="63.4" y="69" class="st1" width="0.8" height="5.6">
  </rect>
  <polygon class="st1" points="69.2,69 69.2,69.7 67.4,69.7 67.4,74.6 66.7,74.6 66.7,69.7 64.9,69.7 64.9,69 	">
  </polygon>
  <path class="st1" d="M71.5,74.6v-2.2c-0.4-0.6-0.7-1.1-1-1.7s-0.6-1.1-0.9-1.6h0.9c0.2,0.4,0.4,0.9,0.7,1.3
		c0.3,0.5,0.5,0.9,0.8,1.3c0.3-0.4,0.5-0.9,0.8-1.3c0.3-0.5,0.5-0.9,0.7-1.3h0.9c-0.3,0.5-0.6,1.1-0.9,1.6s-0.7,1.1-1,1.7v2.3H71.5z
		">
  </path>
  <path class="st1" d="M50,78.8c0,0.2,0,0.4,0.1,0.6c0.1,0.2,0.1,0.3,0.2,0.5c0.1,0.1,0.2,0.2,0.4,0.3c0.2,0.1,0.3,0.1,0.5,0.1
		c0.2,0,0.4,0,0.5-0.1c0.2-0.1,0.3-0.2,0.4-0.3c0.1-0.1,0.2-0.3,0.2-0.5c0.1-0.2,0.1-0.4,0.1-0.6c0-0.2,0-0.4-0.1-0.6
		c-0.1-0.2-0.1-0.3-0.2-0.5c-0.1-0.1-0.2-0.2-0.4-0.3c-0.2-0.1-0.3-0.1-0.5-0.1c-0.2,0-0.4,0-0.5,0.1c-0.2,0.1-0.3,0.2-0.4,0.3
		c-0.1,0.1-0.2,0.3-0.2,0.5C50,78.3,50,78.5,50,78.8 M49.4,78.8c0-0.3,0-0.6,0.1-0.9c0.1-0.2,0.2-0.5,0.4-0.6
		c0.2-0.2,0.4-0.3,0.6-0.4c0.2-0.1,0.5-0.1,0.7-0.1c0.2,0,0.5,0,0.7,0.1c0.2,0.1,0.4,0.2,0.6,0.4c0.2,0.2,0.3,0.4,0.4,0.6
		c0.1,0.2,0.1,0.5,0.1,0.9c0,0.3,0,0.6-0.1,0.9c-0.1,0.2-0.2,0.5-0.4,0.6c-0.2,0.2-0.4,0.3-0.6,0.4c-0.2,0.1-0.4,0.1-0.7,0.1
		c-0.2,0-0.5,0-0.7-0.1c-0.2-0.1-0.4-0.2-0.6-0.4c-0.2-0.2-0.3-0.4-0.4-0.6C49.5,79.4,49.4,79.1,49.4,78.8">
  </path>
  <polygon class="st1" points="53.8,80.6 53.8,76.9 56.1,76.9 56.1,77.3 54.4,77.3 54.4,78.5 55.9,78.5 55.9,78.9 54.4,78.9 
		54.4,80.6 	">
  </polygon>
  <path class="st1" d="M24.3,86.6c0,0.5-0.1,0.8-0.3,1c-0.2,0.2-0.5,0.3-0.8,0.3c-0.3,0-0.5,0-0.7-0.1c-0.2-0.1-0.3-0.2-0.4-0.3
		l-0.3,0.6c0.1,0,0.1,0.1,0.2,0.1s0.2,0.1,0.3,0.1c0.1,0,0.3,0.1,0.4,0.1c0.2,0,0.3,0,0.5,0c0.4,0,0.7,0,0.9-0.1
		c0.2-0.1,0.4-0.2,0.6-0.4s0.2-0.4,0.3-0.6c0.1-0.2,0.1-0.5,0.1-0.7v-3.8h-0.8V86.6z">
  </path>
  <path class="st1" d="M30.5,86.6c-0.1,0.3-0.2,0.5-0.4,0.7c-0.2,0.2-0.4,0.3-0.6,0.4c-0.2,0.1-0.5,0.2-0.8,0.2
		c-0.3,0-0.5-0.1-0.8-0.2c-0.2-0.1-0.4-0.3-0.6-0.4s-0.3-0.4-0.4-0.7C27,86.4,27,86.1,27,85.7s0-0.6,0.1-0.9s0.2-0.5,0.4-0.7
		s0.4-0.3,0.6-0.4c0.2-0.1,0.5-0.2,0.8-0.2c0.3,0,0.5,0.1,0.8,0.2c0.2,0.1,0.4,0.3,0.6,0.4c0.2,0.2,0.3,0.4,0.4,0.7s0.1,0.6,0.1,0.9
		S30.6,86.4,30.5,86.6 M30.7,83.5c-0.2-0.2-0.5-0.4-0.8-0.6s-0.7-0.2-1-0.2c-0.4,0-0.7,0.1-1,0.2c-0.3,0.1-0.6,0.3-0.9,0.6
		c-0.2,0.2-0.4,0.5-0.6,0.9c-0.1,0.4-0.2,0.8-0.2,1.3c0,0.5,0.1,0.9,0.2,1.3c0.1,0.4,0.3,0.7,0.6,0.9c0.2,0.2,0.5,0.4,0.9,0.6
		c0.3,0.1,0.7,0.2,1,0.2c0.4,0,0.7-0.1,1-0.2c0.3-0.1,0.6-0.3,0.8-0.6c0.2-0.2,0.4-0.5,0.6-0.9c0.1-0.4,0.2-0.8,0.2-1.3
		c0-0.5-0.1-0.9-0.2-1.3C31.1,84.1,30.9,83.8,30.7,83.5">
  </path>
  <polygon class="st1" points="36.1,85.3 33.4,85.3 33.4,82.9 32.6,82.9 32.6,88.5 33.4,88.5 33.4,85.9 36.1,85.9 36.1,88.5 
		36.9,88.5 36.9,82.9 36.1,82.9 	">
  </polygon>
  <path class="st1" d="M39.1,86.4c0.2-0.5,0.3-0.9,0.5-1.4s0.3-0.9,0.5-1.3c0.2,0.4,0.4,0.8,0.5,1.3s0.3,0.9,0.5,1.4H39.1z
		 M41.6,85.5c-0.2-0.5-0.4-0.9-0.5-1.3c-0.2-0.4-0.4-0.8-0.6-1.2h-0.7c-0.2,0.4-0.4,0.8-0.6,1.2c-0.2,0.4-0.4,0.8-0.5,1.3
		c-0.2,0.5-0.4,0.9-0.6,1.4c-0.2,0.5-0.4,1-0.6,1.6h0.8l0.5-1.4h2.5c0.1,0.2,0.2,0.5,0.2,0.7c0.1,0.2,0.2,0.5,0.3,0.7h0.9
		c-0.2-0.6-0.4-1.1-0.6-1.6C42,86.4,41.8,85.9,41.6,85.5">
  </path>
  <path class="st1" d="M47.2,87.1c-0.2-0.3-0.4-0.6-0.6-1c-0.2-0.4-0.5-0.7-0.8-1.1c-0.3-0.4-0.6-0.7-0.9-1.1
		c-0.3-0.4-0.6-0.7-0.8-0.9h-0.6v5.6h0.8v-4.4c0.1,0.2,0.3,0.4,0.5,0.6c0.2,0.2,0.4,0.5,0.5,0.7c0.2,0.3,0.4,0.5,0.6,0.8
		c0.2,0.3,0.4,0.5,0.6,0.8c0.2,0.3,0.3,0.5,0.5,0.8c0.2,0.2,0.3,0.5,0.4,0.7h0.7v-5.6h-0.8V87.1z">
  </path>
  <path class="st1" d="M53,87.1c-0.2-0.3-0.4-0.6-0.6-1c-0.2-0.4-0.5-0.7-0.8-1.1c-0.3-0.4-0.6-0.7-0.9-1.1c-0.3-0.4-0.6-0.7-0.8-0.9
		h-0.6v5.6H50v-4.4c0.1,0.2,0.3,0.4,0.5,0.6c0.2,0.2,0.4,0.5,0.5,0.7s0.4,0.5,0.6,0.8c0.2,0.3,0.4,0.5,0.6,0.8
		c0.2,0.3,0.3,0.5,0.5,0.8c0.2,0.2,0.3,0.5,0.4,0.7h0.7v-5.6H53V87.1z">
  </path>
  <polygon class="st1" points="55.8,85.9 58.2,85.9 58.2,85.3 55.8,85.3 55.8,83.6 58.4,83.6 58.4,82.9 55,82.9 55,88.5 58.6,88.5 
		58.6,87.8 55.8,87.8 	">
  </polygon>
  <path class="st1" d="M62.4,86c-0.1-0.1-0.3-0.2-0.5-0.3c-0.2-0.1-0.4-0.2-0.7-0.3c-0.2-0.1-0.3-0.1-0.5-0.2
		c-0.1-0.1-0.3-0.1-0.4-0.2c-0.1-0.1-0.2-0.2-0.2-0.3c-0.1-0.1-0.1-0.2-0.1-0.4c0-0.1,0-0.2,0.1-0.3c0.1-0.1,0.1-0.2,0.2-0.2
		c0.1-0.1,0.2-0.1,0.3-0.1c0.1,0,0.3,0,0.4,0c0.3,0,0.6,0,0.8,0.1c0.2,0.1,0.4,0.1,0.5,0.2l0.2-0.6c-0.1-0.1-0.3-0.2-0.6-0.2
		c-0.3-0.1-0.6-0.1-0.9-0.1c-0.6,0-1,0.1-1.4,0.4c-0.3,0.3-0.5,0.7-0.5,1.1c0,0.2,0,0.4,0.1,0.6c0.1,0.2,0.2,0.3,0.3,0.4
		c0.1,0.1,0.3,0.2,0.5,0.3c0.2,0.1,0.4,0.2,0.6,0.2c0.2,0.1,0.3,0.1,0.5,0.2c0.2,0.1,0.3,0.1,0.4,0.2c0.1,0.1,0.2,0.2,0.3,0.3
		c0.1,0.1,0.1,0.3,0.1,0.4c0,0.6-0.4,0.8-1.2,0.8c-0.4,0-0.7,0-0.9-0.1c-0.3-0.1-0.4-0.2-0.6-0.2l-0.2,0.6c0.1,0,0.1,0.1,0.2,0.1
		c0.1,0,0.2,0.1,0.4,0.1s0.3,0.1,0.5,0.1c0.2,0,0.4,0,0.6,0c0.6,0,1.2-0.1,1.5-0.4c0.4-0.3,0.5-0.6,0.5-1.1c0-0.3,0-0.5-0.1-0.7
		C62.7,86.3,62.6,86.1,62.4,86">
  </path>
  <path class="st1" d="M66.9,87.4c-0.1,0.1-0.2,0.2-0.4,0.3c-0.2,0.1-0.3,0.1-0.5,0.2c-0.2,0-0.4,0-0.7,0c-0.1,0-0.2,0-0.3,0
		c-0.1,0-0.2,0-0.2,0c-0.1,0-0.1,0-0.2,0v-2h1c0.2,0,0.4,0,0.6,0c0.2,0,0.3,0.1,0.5,0.2c0.1,0.1,0.2,0.2,0.3,0.3
		c0.1,0.1,0.1,0.3,0.1,0.5C67,87.1,67,87.3,66.9,87.4 M64.6,83.6c0.1,0,0.2,0,0.3,0c0.1,0,0.3,0,0.5,0c0.2,0,0.4,0,0.6,0
		c0.2,0,0.3,0.1,0.5,0.1c0.1,0.1,0.2,0.2,0.3,0.3c0.1,0.1,0.1,0.2,0.1,0.4c0,0.2,0,0.3-0.1,0.4c-0.1,0.1-0.2,0.2-0.3,0.3
		c-0.1,0.1-0.3,0.1-0.4,0.1c-0.2,0-0.4,0-0.5,0h-0.8V83.6z M66.8,85.5c0.2-0.1,0.4-0.2,0.6-0.4c0.1-0.2,0.2-0.4,0.2-0.8
		c0-0.3-0.1-0.5-0.2-0.7c-0.1-0.2-0.3-0.3-0.5-0.5c-0.2-0.1-0.5-0.2-0.7-0.2c-0.3,0-0.6-0.1-0.9-0.1c-0.1,0-0.2,0-0.4,0
		c-0.1,0-0.3,0-0.4,0c-0.1,0-0.3,0-0.4,0s-0.2,0-0.4,0.1v5.4c0.1,0,0.2,0,0.4,0.1c0.1,0,0.3,0,0.4,0c0.1,0,0.3,0,0.4,0
		c0.1,0,0.3,0,0.4,0c0.9,0,1.5-0.1,1.9-0.4c0.4-0.3,0.6-0.7,0.6-1.3c0-0.4-0.1-0.7-0.3-0.9C67.4,85.8,67.1,85.6,66.8,85.5">
  </path>
  <path class="st1" d="M72.3,86.4c0,0.3,0,0.5-0.1,0.7c-0.1,0.2-0.2,0.4-0.3,0.5c-0.1,0.1-0.3,0.2-0.4,0.3c-0.2,0.1-0.3,0.1-0.5,0.1
		c-0.4,0-0.7-0.1-1-0.4c-0.2-0.3-0.4-0.7-0.4-1.2v-3.4h-0.8v3.5c0,0.3,0,0.6,0.1,0.9c0.1,0.3,0.2,0.5,0.4,0.7
		c0.2,0.2,0.4,0.4,0.7,0.5c0.3,0.1,0.6,0.2,0.9,0.2c0.4,0,0.7-0.1,0.9-0.2c0.3-0.1,0.5-0.3,0.7-0.5c0.2-0.2,0.3-0.4,0.4-0.7
		c0.1-0.3,0.1-0.6,0.1-0.9v-3.5h-0.8V86.4z">
  </path>
  <path class="st1" d="M77,85.5c-0.1,0.1-0.3,0.1-0.5,0.2c-0.2,0-0.5,0-0.7,0h-0.6v-2.1c0.2,0,0.4,0,0.8,0c0.2,0,0.4,0,0.6,0
		c0.2,0,0.3,0.1,0.5,0.2c0.1,0.1,0.2,0.2,0.3,0.3c0.1,0.1,0.1,0.3,0.1,0.5c0,0.2,0,0.4-0.1,0.5C77.2,85.3,77.1,85.4,77,85.5
		 M77.8,87.2c-0.1-0.2-0.3-0.4-0.4-0.6c-0.1-0.2-0.2-0.3-0.3-0.4c0.4-0.1,0.7-0.3,0.9-0.6c0.2-0.3,0.3-0.6,0.3-0.9
		c0-0.6-0.2-1-0.6-1.3c-0.4-0.3-1-0.4-1.8-0.4c-0.2,0-0.5,0-0.7,0c-0.3,0-0.5,0.1-0.7,0.1v5.5h0.8v-2.2h0.7h0.2c0.1,0,0.1,0,0.2,0
		c0.1,0.1,0.2,0.3,0.3,0.4c0.1,0.2,0.3,0.3,0.4,0.5c0.1,0.2,0.3,0.4,0.4,0.6c0.1,0.2,0.2,0.4,0.3,0.6h0.9c-0.1-0.2-0.2-0.4-0.4-0.7
		C78.1,87.6,78,87.4,77.8,87.2">
  </path>
  <path class="st1" d="M81.6,85.6v0.8h1.1v1.5c-0.1,0-0.2,0-0.3,0.1c-0.2,0-0.4,0-0.6,0c-0.3,0-0.6-0.1-0.8-0.2
		c-0.2-0.1-0.4-0.3-0.6-0.5c-0.2-0.2-0.3-0.4-0.4-0.7c-0.1-0.3-0.1-0.6-0.1-0.9c0-0.3,0-0.7,0.1-0.9c0.1-0.3,0.2-0.5,0.4-0.7
		c0.2-0.2,0.4-0.3,0.6-0.4c0.2-0.1,0.5-0.2,0.8-0.2c0.3,0,0.5,0,0.8,0.1c0.3,0.1,0.5,0.2,0.6,0.3l0.2-0.7c0,0-0.1-0.1-0.2-0.1
		c-0.1,0-0.2-0.1-0.3-0.1c-0.1,0-0.3-0.1-0.5-0.1c-0.2,0-0.4,0-0.7,0c-0.4,0-0.7,0.1-1,0.2c-0.3,0.1-0.6,0.3-0.8,0.6
		c-0.2,0.2-0.4,0.6-0.6,0.9c-0.1,0.4-0.2,0.8-0.2,1.2c0,0.5,0.1,0.9,0.2,1.2c0.1,0.4,0.3,0.7,0.5,0.9c0.2,0.2,0.5,0.4,0.8,0.6
		c0.3,0.1,0.7,0.2,1.1,0.2c0.2,0,0.4,0,0.6,0c0.2,0,0.4,0,0.5-0.1c0.2,0,0.3-0.1,0.4-0.1c0.1,0,0.2-0.1,0.3-0.1v-2.8H81.6z">
  </path>
 </g>
</svg>