<svg version="1.1" id="Layer_1" xmlns:x="ns_extend;" xmlns:i="ns_ai;" xmlns:graph="ns_graphs;" xmlns="http://www.w3.org/2000/svg" xmlns:xlink="http://www.w3.org/1999/xlink" x="0px" y="0px" viewBox="0 0 221.2 145.9" style="enable-background:new 0 0 221.2 145.9;" xml:space="preserve">
 <style type="text/css">
  .st0{clip-path:url(#SVGID_2_);fill:#1E1E1E;}
	.st1{clip-path:url(#SVGID_2_);fill:#A51C30;}
	.st2{clip-path:url(#SVGID_2_);fill:none;stroke:#000000;stroke-width:0.5014;}
	.st3{clip-path:url(#SVGID_2_);fill:#FFFFFF;}
	.st4{clip-path:url(#SVGID_2_);fill:none;stroke:#000000;stroke-width:0.1192;}
	.st5{clip-path:url(#SVGID_2_);fill:none;stroke:#000000;stroke-width:0.1258;}
 </style>
 <metadata>
  <sfw xmlns="ns_sfw;">
   <slices>
   </slices>
   <sliceSourceBounds bottomLeftOrigin="true" height="145.9" width="221.2" x="136.4" y="-427.9">
   </sliceSourceBounds>
  </sfw>
 </metadata>
 <g>
  <defs>
   <rect id="SVGID_1_" x="0" y="0" width="221.2" height="145.9">
   </rect>
  </defs>
  <clipPath id="SVGID_2_">
   <use href="#SVGID_1_" style="overflow:visible;">
   </use>
  </clipPath>
  <path class="st0" d="M38.6,44c0-0.6-0.4-1.1-1.3-1.3v-0.4c0.5,0,2.1,0.1,2.5,0.1c0.4,0,1.9-0.1,2.4-0.1v0.4
		C41.4,42.8,41,43.3,41,44v8.2c0,2.6,1.4,4.1,4.4,4.1c2.6,0,4.6-1.2,4.6-3.9V44c0-0.6-0.4-1.1-1.3-1.3v-0.4c0.4,0,1.7,0.1,2.1,0.1
		c0.4,0,1.8-0.1,2.1-0.1v0.4c-0.9,0.2-1.3,0.6-1.3,1.3v8c0,3.6-2.1,5.6-6.6,5.6c-4.2,0-6.4-1.9-6.4-5.3V44z">
  </path>
  <path class="st0" d="M56.6,57c1-0.2,1.4-0.7,1.4-1.3V44.3c0-1-0.5-1.4-1.4-1.6v-0.4c0.5,0,1.3,0.1,1.7,0.1c0.4,0,1,0,1.4-0.1
		l9.8,11.6V44c0-0.6-0.4-1.1-1.3-1.3v-0.4c0.4,0,1.6,0.1,2.1,0.1c0.4,0,1.8-0.1,2.1-0.1v0.4C71.4,42.9,71,43.3,71,44v13.6h-0.6
		c-0.4-0.1-1.1-0.5-2.2-1.7l-8.8-10.3v10c0,0.6,0.4,1.1,1.3,1.3v0.4c-0.4,0-1.6-0.1-2.1-0.1c-0.4,0-1.7,0.1-2.1,0.1V57z">
  </path>
  <path class="st0" d="M134.3,53.9h0.4c0.2,0.8,0.7,1.6,1.4,2.1c0.7,0.5,1.8,0.7,2.7,0.7c2,0,3.2-1,3.2-2.5c0-1.6-1.6-2.4-3.5-3.4
		c-1.4-0.7-4.3-1.9-4.3-4.6c0-2.5,1.9-4.1,5-4.1c2,0,3,0.5,4.4,0.4l0,3.1h-0.4c-0.6-1.8-2.2-2.4-4-2.4c-2,0-2.8,1.2-2.8,2.3
		c0,1.7,1.6,2.5,3.5,3.4c2.1,0.9,4.4,2.1,4.4,4.7c0,2.5-1.9,4.3-5.5,4.3c-2.1,0-3.4-0.6-4.5-0.7L134.3,53.9z">
  </path>
  <path class="st0" d="M176.7,51.1l-4-6.4c-0.7-1.1-1.2-1.7-2-2v-0.4c0.5,0,2,0.1,2.5,0.1c0.4,0,2-0.1,2.6-0.1v0.4
		c-0.5,0.1-0.8,0.3-0.8,0.7c0,0.3,0.2,0.8,0.5,1.2c0.2,0.4,3,4.9,3,4.9l2.8-4.9c0.3-0.5,0.5-1,0.5-1.3c0-0.3-0.2-0.5-0.7-0.6v-0.4
		c0.5,0,1.5,0.1,1.8,0.1c0.3,0,1.5-0.1,2-0.1v0.4c-1.1,0.4-1.8,1.4-2.4,2.5l-3.6,6.1 M179,50.5v5.1c0,0.5,0.4,1.2,1.3,1.3v0.4
		c-0.5,0-2.1-0.1-2.5-0.1c-0.4,0-1.9,0.1-2.5,0.1V57c0.9-0.2,1.3-0.8,1.3-1.3v-4.9">
  </path>
  <path class="st0" d="M102.1,42.3h9.4c0.3,0,0.8,0,1.1-0.2h0.4l-0.1,3.1h-0.4c-0.4-1-0.7-1.7-2.5-1.7h-4.1v5.3h3.2
		c0.5,0,1,0,1.3-0.1c0.7-0.2,1-0.5,1.2-1.2h0.4c0,0.5,0,1.5,0,1.8s0,1.4,0,1.9h-0.4c-0.2-0.6-0.5-1.1-1.2-1.2
		c-0.2-0.1-0.8-0.1-1.3-0.1h-3.2v6.2h4.4c1.9,0,2.5-0.8,3-2l0.4,0.1l-0.4,3.1c-1.4-0.1-2.3-0.1-3.9-0.1h-4.7c-0.5,0-2.1,0.1-2.6,0.1
		V57c0.8-0.2,1.3-0.6,1.3-1.4V44c0-0.7-0.4-1.2-1.3-1.3V42.3z">
  </path>
  <path class="st0" d="M78.1,44.1c0-0.8-0.5-1.2-1.4-1.4v-0.4c0.5,0,2.1,0.1,2.6,0.1c0.4,0,2.1-0.1,2.6-0.1v0.4
		c-0.9,0.2-1.4,0.6-1.4,1.4v11.5c0,0.8,0.5,1.2,1.4,1.4v0.4c-0.5,0-2.1-0.1-2.6-0.1c-0.4,0-2.1,0.1-2.6,0.1V57
		c0.9-0.2,1.4-0.6,1.4-1.4V44.1z">
  </path>
  <path class="st0" d="M149.5,44.1c0-0.8-0.5-1.2-1.4-1.4v-0.4c0.5,0,2.1,0.1,2.6,0.1c0.4,0,2.1-0.1,2.6-0.1v0.4
		c-0.9,0.2-1.4,0.6-1.4,1.4v11.5c0,0.8,0.5,1.2,1.4,1.4v0.4c-0.5,0-2.1-0.1-2.6-0.1c-0.4,0-2.1,0.1-2.6,0.1V57
		c0.9-0.2,1.4-0.6,1.4-1.4V44.1z">
  </path>
  <path class="st0" d="M162.5,42.3c-5.2,0-6-0.1-7-0.2l0,3.1h0.4c0.4-1.4,1.2-1.7,2.1-1.7h3.2v12c0,0.8-0.4,1.2-1.4,1.4v0.4
		c0.5,0,2.2-0.1,2.6-0.1c0.5,0,2.1,0.1,2.6,0.1V57c-0.9-0.2-1.4-0.6-1.4-1.4v-12h3.2c1,0,1.8,0.4,2.2,1.7h0.4l0-3.1
		C168.5,42.2,167.7,42.3,162.5,42.3">
  </path>
  <path class="st0" d="M121.4,55.6c0,0.8,0.5,1.2,1.4,1.4v0.4c-0.5,0-2.2-0.1-2.6-0.1c-0.4,0-2,0.1-2.5,0.1V57
		c0.8-0.2,1.3-0.6,1.3-1.4V44c0-0.7-0.4-1.2-1.3-1.3v-0.4c0.5,0,2.1,0.1,2.6,0.1c0.7,0,2.8-0.1,3.7-0.1c3.6,0,5.6,1.5,5.6,4.1
		c0,2-1.5,3.4-3.8,3.9c0,0,0.5,0.3,1,0.9c0.6,0.7,2.4,3.2,3.1,4.1c0.7,0.9,1.6,1.8,2.6,1.9v0.3c-0.5,0.1-1.2,0.2-1.8,0.2
		c-1.2,0-2.2-0.4-3.2-1.6c-0.8-1-2.2-3.1-3-4.1c-0.5-0.7-1.2-1.2-2.3-1.4c-0.2,0-0.4-0.1-0.7-0.1V55.6z M121.4,49.4
		c0.5,0.1,1.2,0.1,1.9,0.1c2.8,0,3.7-1.6,3.7-3.1c0-2-1.4-3.3-3.8-3.3c-0.5,0-1.3,0.1-1.8,0.2V49.4z">
  </path>
  <path class="st0" d="M85.6,44.1c-0.3-0.7-0.8-1.3-1.7-1.5v-0.4c0.5,0,2.4,0.1,2.8,0.1c0.4,0,2-0.1,2.5-0.1v0.4
		c-0.5,0.1-1,0.4-1,0.9c0,0.4,0.2,0.8,0.6,1.8l3.9,8.9l3.7-8.9c0.3-0.7,0.5-1.3,0.5-1.7c0-0.5-0.4-0.8-1-0.9v-0.4
		c0.5,0,1.7,0.1,2.1,0.1c0.3,0,1.8-0.1,2.3-0.1v0.4c-0.9,0.2-1.5,0.8-2,2l-5.4,12.8h-1.2L85.6,44.1z">
  </path>
  <path class="st0" d="M99.5,3.8c-0.6-1.4-1.6-2.4-3.2-2.8V0.2c1,0,4.4,0.1,5.2,0.1c0.7,0,4-0.1,5-0.1V1c-0.9,0.2-2,0.7-2,1.6
		c0,0.7,0.4,1.6,1.2,3.3l7.4,16.8L120,6c0.5-1.4,1-2.4,1-3.2c0-0.9-0.8-1.5-2-1.7V0.2c0.9,0,3.2,0.1,3.9,0.1c0.6,0,3.3-0.1,4.3-0.1
		V1c-1.7,0.5-2.8,1.5-3.8,3.7L113.1,29h-2.3L99.5,3.8z">
  </path>
  <path class="st0" d="M0,28.1c1.3-0.3,2.3-0.9,2.3-2.4V3.4C2.3,1.9,1.4,1.3,0,1V0.2c0.7,0,3.7,0.1,4.5,0.1c0.9,0,4-0.1,4.7-0.1V1
		C7.9,1.3,6.9,1.9,6.9,3.4v9.3h16.6V3.4c0-1.5-0.9-2.1-2.3-2.4V0.2c0.7,0,3.8,0.1,4.7,0.1c0.7,0,3.8-0.1,4.5-0.1V1
		C29,1.3,28,1.9,28,3.4v22.2c0,1.5,0.9,2.1,2.3,2.4v0.7c-0.7,0-3.8-0.1-4.5-0.1c-0.8,0-4,0.1-4.7,0.1v-0.7c1.3-0.3,2.3-0.9,2.3-2.4
		V15.1H6.9v10.5c0,1.5,0.9,2.1,2.3,2.4v0.7c-0.7,0-3.9-0.1-4.7-0.1c-0.7,0-3.8,0.1-4.5,0.1V28.1z">
  </path>
  <path class="st0" d="M191.5,28.1c1.7-0.3,2.7-1,2.7-2.6V3.4c0-1.5-0.9-2.1-2.6-2.4V0.2c1,0,4.1,0.1,4.9,0.1c1.4,0,5.3-0.3,8.3-0.3
		c10.2,0,16.4,5.7,16.4,14.3c0,8.4-6.4,14.6-16.9,14.6c-3,0-6.6-0.2-8-0.2c-0.9,0-3.8,0.1-4.7,0.1V28.1z M198.8,26.6
		c1,0.2,3,0.3,4.5,0.3c8.6,0,13-5.1,13-12.3c0-7.4-4.7-12.7-12.7-12.7c-1.6,0-3.7,0.1-4.8,0.3V26.6z">
  </path>
  <path class="st0" d="M76.2,25.4c0,1.5,0.9,2.3,2.7,2.6v0.8c-1,0-4.1-0.1-5-0.1c-0.8,0-3.8,0.1-4.8,0.1v-0.8
		c1.6-0.3,2.5-1.1,2.5-2.6V3.5c0-1.3-0.7-2.2-2.5-2.5V0.2c1,0,4,0.1,4.8,0.1c1.4,0,5.4-0.2,6.9-0.2c6.8,0,10.7,2.8,10.7,7.7
		c0,3.8-2.8,6.4-7.2,7.5c0,0,1,0.6,2,1.7c1.2,1.4,4.5,6.2,5.9,7.8c1.3,1.6,3.1,3.5,4.9,3.6V29c-0.9,0.2-2.3,0.4-3.4,0.4
		c-2.3,0-4.2-0.8-6-3c-1.6-1.9-4.3-5.9-5.8-7.9c-1-1.3-2.2-2.3-4.4-2.6c-0.4-0.1-0.8-0.1-1.3-0.2V25.4z M76.2,13.8
		c0.9,0.1,2.3,0.2,3.6,0.2c5.4,0,7-3.1,7-5.8c0-3.9-2.6-6.3-7.3-6.3c-1,0-2.4,0.1-3.4,0.3V13.8z">
  </path>
  <path class="st0" d="M166.5,25.4c0,1.5,0.9,2.3,2.7,2.6v0.8c-1,0-4.1-0.1-5-0.1c-0.8,0-3.8,0.1-4.8,0.1v-0.8
		c1.6-0.3,2.5-1.1,2.5-2.6V3.5c0-1.3-0.7-2.2-2.5-2.5V0.2c1,0,4,0.1,4.8,0.1c1.4,0,5.4-0.2,6.9-0.2c6.9,0,10.7,2.8,10.7,7.7
		c0,3.8-2.8,6.4-7.2,7.5c0,0,1,0.6,2,1.7c1.2,1.4,4.6,6.2,5.9,7.8c1.4,1.6,3.1,3.5,4.9,3.6V29c-0.9,0.2-2.3,0.4-3.4,0.4
		c-2.3,0-4.2-0.8-6-3c-1.6-1.9-4.3-5.9-5.8-7.9c-1-1.3-2.2-2.3-4.4-2.6c-0.4-0.1-0.8-0.1-1.3-0.2V25.4z M166.5,13.8
		c0.9,0.1,2.3,0.2,3.6,0.2c5.4,0,7-3.1,7-5.8c0-3.9-2.6-6.3-7.3-6.3c-1,0-2.4,0.1-3.4,0.3V13.8z">
  </path>
  <path class="st0" d="M34.7,28.1c1.8-0.4,2.8-1.6,3.5-3.2l9.2-22.1C47.7,1.9,48.2,0,48.2,0h2.6c0,0,0.5,1.9,0.8,2.8L61.3,25
		c0.7,1.5,1.4,2.6,3.4,3.1l0,0.7c-1.1,0-4.3-0.1-5.1-0.1c-0.7,0-3.9,0.1-4.9,0.1l0-0.7c1.4-0.3,1.9-1.1,1.9-1.8
		c0-0.6-0.2-1.3-0.5-1.9l-2.1-4.8H43.3l-1.9,4.8c-0.2,0.5-0.5,1.3-0.5,1.8c0,0.8,0.4,1.4,2,1.9l0,0.7c-0.9,0-3.4-0.1-4-0.1l-4.1,0.1
		L34.7,28.1z M53,17.4L48.4,6.7l-4.2,10.6H53z">
  </path>
  <path class="st0" d="M125.6,28.1c1.8-0.4,2.8-1.6,3.5-3.2l9.2-22.1C138.6,1.9,139,0,139,0h2.6c0,0,0.5,1.9,0.8,2.8l9.7,22.1
		c0.7,1.5,1.4,2.6,3.4,3.1l0,0.7c-1,0-4.3-0.1-5.1-0.1c-0.7,0-3.8,0.1-4.9,0.1l0-0.7c1.4-0.3,1.9-1.1,1.9-1.8c0-0.6-0.2-1.3-0.5-1.9
		l-2.1-4.8h-10.7l-1.9,4.8c-0.2,0.5-0.5,1.3-0.5,1.8c0,0.8,0.4,1.4,2,1.9l0,0.7c-0.9,0-3.4-0.1-4-0.1l-4.1,0.1L125.6,28.1z
		 M143.8,17.4l-4.6-10.6L135,17.4H143.8z">
  </path>
  <path class="st1" d="M81.6,74.4h59.9V97c0,10.4-3.9,32.3-29.7,48.7c0,0-28-11.7-30.2-48.7V74.4z">
  </path>
  <path class="st2" d="M81.5,74.3h59.9v22.6c0,10.4-3.9,32.3-29.7,48.7c0,0-28-11.7-30.2-48.7V74.3z">
  </path>
  <path class="st3" d="M126.9,103.4c0,0-0.5,1.7-2.9,0l-8.1-0.2c0,0-1.1,0.3-1.2-0.8c0,0,0.2-2.2,0.1-2.4c0,0,0-0.6-1-0.6
		c0,0-1.6,0.2-1.7-1.3c0,0-0.3-1.6,2-1.5c0,0,0.7,0.3,0.8-0.6c0,0-0.1-6.3,0-6.8c0,0,0.2-0.6-0.9-0.7c0,0-1.6,0.3-1.8-0.7
		c0,0-0.1-1.6,1-1.7c0,0,1.3,0.1,1.6-0.2c0,0,0.3,0.2,0.2-1l0.1-2c0,0,0.1-0.5,1-0.5c0,0,1.5,0.1,1.7-0.1c0,0,0.3-0.4,0.4-0.6
		c0,0,0.8,0,0.9,0.1c0,0,1.2,0.8,5.6,0.5c0,0,0.7,0,0.8,0.2c0,0,0.8,0.6,1.3,0c0,0,0.7-0.1,2.9-0.1c0,0,2.4,0.6,4-0.7l0.5,0.1
		c0,0,0.7,1.1,1.2,0.8c0,0,1.5-0.1,1.7,0.1c0,0,0.5,0.7,0.2,2.6c0,0-0.3,0.8,1.1,0.8c0,0,1.6-0.3,1.4,1.2c0,0,0.4,1.7-2.2,1.5
		c0,0-0.3,0.5-0.3,0.8c0,0,0,5.5-0.1,6.2c0,0,0,0.9,1.1,0.8c0,0,1.6-0.1,1.6,1.3c0,0,0.2,1.8-2,1.5c0,0-0.7,0.1-0.8,0.5l-0.1,2.4
		c0,0,0,1.2-1.3,0.9c-0.2,0-7.6,0.1-8.2,0C127.3,103.3,127,103.2,126.9,103.4">
  </path>
  <path class="st3" d="M111.2,111.5c0,0,0.3-0.1,0.4-0.4c0,0,1-0.1,1.2-0.2l3.2,0.2c0,0,3.2,0.2,4.5-0.7c0,0,0.5,0,0.8,0.1
		c0,0,0.7,0.1,0.9,0.4l1.8-0.1c0,0,1.1,0.3,1,1v0.9c0,0-0.2,1.7,0.3,1.8h1.4c0,0,1.2,0.5,1,1.2c0,0,0,1-1,1.2c0,0-1,0.3-1.4,0.2
		c0,0-0.3,0.4-0.4,1l-0.1,6.4c0,0-0.1,0.7,0.9,0.6c0,0,1.5-0.1,1.9,0.7c0,0,0.4,1.4-0.4,1.6l-0.6,0.3l-1.3,0.2c0,0-0.5,0-0.6,1v1.7
		c0,0,0,1.2-0.9,1.2l-1.4,0.1c0,0-0.3,0.3-1,0.1c0,0-8.2,0.1-8.5,0l-1,0.2c0,0-1.1,1-1.9,0.2l-0.7-0.5c0,0-0.5,0.1-0.7,0
		c-0.2,0-9.1,0.1-9.1,0.1s-1.9,0.2-2-0.4c0,0-0.2-2.5-0.1-2.8c0,0,0-0.7-0.4-0.8c0,0-1.9-0.1-1.9-0.3c0,0-1-0.7-0.7-1.5
		c0,0,0.3-1,1.4-1.1c0,0,1.6,0.2,1.6-0.2c0,0,0.1-0.3,0.1-0.8c0,0,0.1-5.8,0-6.2c0,0,0.1-0.7-0.5-0.7c0,0-0.7,0.2-1.1-0.1
		c0,0-1.2,0-1.4-0.9c0,0-0.2-0.6,0.1-1.1c0,0,0.5-1.1,2.1-0.7c0,0,0.9,0.2,1-0.4l0-2.3c0,0-0.2-0.6,1-1c0,0,1.5,0.4,2-0.3
		c0,0,0.5-1.1,1-0.3c0,0,0.9,0.9,3.4,0.8c0,0,4.4-0.3,4.5-0.2c0,0,1.1,0.2,1.4,0.5L111.2,111.5z">
  </path>
  <path class="st3" d="M98.1,103.4c0,0-0.5,1.7-2.9,0l-8.1-0.2c0,0-1.1,0.3-1.2-0.8c0,0,0.2-2.2,0.1-2.4c0,0,0-0.6-1-0.6
		c0,0-1.6,0.2-1.7-1.3c0,0-0.3-1.6,2-1.5c0,0,0.7,0.3,0.8-0.6c0,0-0.1-6.3,0-6.8c0,0,0.2-0.6-0.9-0.7c0,0-1.6,0.3-1.8-0.7
		c0,0-0.1-1.6,1-1.7c0,0,1.3,0.1,1.6-0.2c0,0,0.3,0.2,0.2-1l0-2c0,0,0.1-0.5,1-0.5c0,0,1.5,0.1,1.7,0c0,0,0.3-0.4,0.4-0.6
		c0,0,0.8,0,0.9,0.1c0,0,1.2,0.8,5.6,0.5c0,0,0.7,0,0.8,0.2c0,0,0.8,0.6,1.3-0.1c0,0,0.7-0.1,2.9-0.1c0,0,2.4,0.6,4-0.7l0.5,0.1
		c0,0,0.7,1.1,1.2,0.8c0,0,1.5-0.1,1.7,0.1c0,0,0.5,0.7,0.2,2.6c0,0-0.3,0.8,1.1,0.8c0,0,1.6-0.3,1.4,1.2c0,0,0.4,1.7-2.2,1.5
		c0,0-0.3,0.5-0.3,0.8c0,0,0,5.5-0.1,6.2c0,0,0,0.9,1.1,0.8c0,0,1.6-0.1,1.6,1.3c0,0,0.2,1.8-2,1.5c0,0-0.7,0.1-0.8,0.5l-0.1,2.4
		c0,0,0.1,1.2-1.3,0.9c-0.2,0-7.6,0.1-8.2,0C98.5,103.3,98.2,103.2,98.1,103.4">
  </path>
  <path class="st0" d="M126.9,103.4c0,0-0.5,1.7-2.9,0l-8.1-0.2c0,0-1.1,0.3-1.2-0.8c0,0,0.2-2.2,0.1-2.4c0,0,0-0.6-1-0.6
		c0,0-1.6,0.2-1.7-1.3c0,0-0.3-1.6,2-1.5c0,0,0.7,0.3,0.8-0.6c0,0-0.1-6.3,0-6.8c0,0,0.2-0.6-0.9-0.7c0,0-1.6,0.3-1.8-0.7
		c0,0-0.1-1.6,1-1.7c0,0,1.3,0.1,1.6-0.2c0,0,0.3,0.2,0.2-1l0.1-2c0,0,0.1-0.5,1-0.5c0,0,1.5,0.1,1.7-0.1c0,0,0.3-0.4,0.4-0.6
		c0,0,0.8,0,0.9,0.1c0,0,1.2,0.8,5.6,0.5c0,0,0.7,0,0.8,0.2c0,0,0.8,0.6,1.3,0c0,0,0.7-0.1,2.9-0.1c0,0,2.4,0.6,4-0.7l0.5,0.1
		c0,0,0.7,1.1,1.2,0.8c0,0,1.5-0.1,1.7,0.1c0,0,0.5,0.7,0.2,2.6c0,0-0.3,0.8,1.1,0.8c0,0,1.6-0.3,1.4,1.2c0,0,0.4,1.7-2.2,1.5
		c0,0-0.3,0.5-0.3,0.8c0,0,0,5.5-0.1,6.2c0,0,0,0.9,1.1,0.8c0,0,1.6-0.1,1.6,1.3c0,0,0.2,1.8-2,1.5c0,0-0.7,0.1-0.8,0.5l-0.1,2.4
		c0,0,0,1.2-1.3,0.9c-0.2,0-7.6,0.1-8.2,0C127.3,103.3,127,103.2,126.9,103.4">
  </path>
  <path class="st4" d="M126.9,103.4c0,0-0.5,1.7-2.9,0l-8.1-0.2c0,0-1.1,0.3-1.2-0.8c0,0,0.2-2.2,0.1-2.4c0,0,0-0.6-1-0.6
		c0,0-1.6,0.2-1.7-1.3c0,0-0.3-1.6,2-1.5c0,0,0.7,0.3,0.8-0.6c0,0-0.1-6.3,0-6.8c0,0,0.2-0.6-0.9-0.7c0,0-1.6,0.3-1.8-0.7
		c0,0-0.1-1.6,1-1.7c0,0,1.3,0.1,1.6-0.2c0,0,0.3,0.2,0.2-1l0.1-2c0,0,0.1-0.5,1-0.5c0,0,1.5,0.1,1.7-0.1c0,0,0.3-0.4,0.4-0.6
		c0,0,0.8,0,0.9,0.1c0,0,1.2,0.8,5.6,0.5c0,0,0.7,0,0.8,0.2c0,0,0.8,0.6,1.3,0c0,0,0.7-0.1,2.9-0.1c0,0,2.4,0.6,4-0.7l0.5,0.1
		c0,0,0.7,1.1,1.2,0.8c0,0,1.5-0.1,1.7,0.1c0,0,0.5,0.7,0.2,2.6c0,0-0.3,0.8,1.1,0.8c0,0,1.6-0.3,1.4,1.2c0,0,0.4,1.7-2.2,1.5
		c0,0-0.3,0.5-0.3,0.8c0,0,0,5.5-0.1,6.2c0,0,0,0.9,1.1,0.8c0,0,1.6-0.1,1.6,1.3c0,0,0.2,1.8-2,1.5c0,0-0.7,0.1-0.8,0.5l-0.1,2.4
		c0,0,0,1.2-1.3,0.9c-0.2,0-7.6,0.1-8.2,0C127.3,103.3,127,103.2,126.9,103.4z">
  </path>
  <path class="st3" d="M117.7,83.4c0,0,0.1,1,0.1,1.2c0,0.2-0.1,14-0.1,14s0.1,1.1-0.8,1.6c0,0-0.2,0.1-0.3-0.6l0.1-14.5
		C116.7,85.1,116.8,83.3,117.7,83.4">
  </path>
  <path class="st5" d="M117.7,83.4c0,0,0.1,1,0.1,1.2c0,0.2-0.1,14-0.1,14s0.1,1.1-0.8,1.6c0,0-0.2,0.1-0.3-0.6l0.1-14.5
		C116.7,85.1,116.8,83.3,117.7,83.4z">
  </path>
  <path class="st3" d="M116.1,100.4c0,0,0.1-13.7,0-13.9c0-0.2,0,0.2,0,0.2s-0.1-2.4,0.5-3.3c0,0-0.2-0.8-1.3,0.2l0,2
		c0,0,0,1.1-1,1.1c0,0-1.2-0.1-1.7,0.5c0,0-0.3,1.1,0.8,0.9c0,0,1.7,0,1.8,0.7l-0.1,7.3c0,0,0.4,1.2-1,1.2c0,0-1.7-0.1-1.6,0.9
		c0,0,0.3,0.9,1.7,0.6c0,0,1,0.2,1,1.2v1.8c0,0-0.1,0.7,0.9,0.8h7.6c0,0,0.4,0,0.4-0.4c0,0,0-0.4-0.6-0.4l-6.3-0.1
		C117.3,101.6,116.2,101.9,116.1,100.4">
  </path>
  <path class="st3" d="M117.6,100.4c0,0-0.2,0.7,0.5,0.5h5l1.4,0.3c0,0,1.4-0.3,0-1.1c0,0-4.5,0-4.8,0c0,0-0.9-0.2-1.1-0.3
		C118.5,99.8,118,99.6,117.6,100.4">
  </path>
  <path class="st5" d="M117.6,100.4c0,0-0.2,0.7,0.5,0.5h5l1.4,0.3c0,0,1.4-0.3,0-1.1c0,0-4.5,0-4.8,0c0,0-0.9-0.2-1.1-0.3
		C118.5,99.8,118,99.6,117.6,100.4z">
  </path>
  <path class="st3" d="M125.9,101.1c0,0-0.9,0-0.9,1.2c0,0,0.1,0.9,1.1,0.9c0,0,0.9-0.1,0.8-1.1C126.9,102.1,126.3,100.9,125.9,101.1
		">
  </path>
  <path class="st3" d="M126.6,100.6c0,0,0.4-0.5,0.7-0.5c0,0,4.9,0.4,5.7-0.1c0,0,0.7-0.1,0.9,0c0,0,0.7,0.6,0.7,0.9
		c0,0,0,0.4-0.9,0.2c0,0-5.5,0.1-5.8,0.1C127.9,101.1,126.4,101.5,126.6,100.6">
  </path>
  <path class="st5" d="M126.6,100.6c0,0,0.4-0.5,0.7-0.5c0,0,4.9,0.4,5.7-0.1c0,0,0.7-0.1,0.9,0c0,0,0.7,0.6,0.7,0.9
		c0,0,0,0.4-0.9,0.2c0,0-5.5,0.1-5.8,0.1C127.9,101.1,126.4,101.5,126.6,100.6z">
  </path>
  <path class="st3" d="M127.2,102.2c0,0,0-0.4,0.7-0.4l6.8,0c0,0,0.6,0.3,0.6-0.8c0,0,0.2-5.3,0.3-11.1c0-1.7,0.1-3.5,0-5.2
		c0,0-0.1-0.7-0.3-0.9c0,0,0-0.8,0.8-0.5c0,0,0.7,0,0.5,1.2l0.1,1.7c0,0-0.1,0.7,1.2,0.5c0,0,1.3,0.2,1.4,0.7c0,0,0.4,1-1.2,0.9
		h-1.1c0,0-0.5,0.3-0.3,0.9l-0.1,7c0,0-0.1,1.2,1.1,1.2c0,0,1.2-0.1,1.5,0.3c0,0,0.8,1.2-1,1.1c0,0-1.1,0-1.4,0.1
		c0,0-0.2,0.2-0.3,2.5c0,0,0.1,1.4-0.9,1.2c0,0-6.7,0.1-7.4,0C128,102.5,127.3,102.7,127.2,102.2">
  </path>
  <path class="st3" d="M118.5,83l-0.1,15.6c0,0,0,0.7,1.2,0.9c0,0,1.4,0.1,1.7,0c0,0,0.9,0,3.3,0.1c0,0,0.6,0.6,0.6-0.1
		c0,0,0.4-12.6,0.2-15.2c0,0-0.1-1.1-0.9-1.2c0,0-3.7,0.3-4,0l-1.5-0.4C119,82.6,118.4,82.6,118.5,83">
  </path>
  <path class="st3" d="M126.1,83.8c0,0-0.1,7.3-0.1,7.6l-0.1,6.2l-0.2,2.1c0,0,0.3,0.4,0.5,0.1c0,0,1.6-0.4,2.5-0.2
		c0,0,3.1,0.3,3.7-0.2c0,0,0.5,0.2,0.6-0.5c0,0,0.2-13.6,0.1-13.8c0,0,0.2-1.9,0.1-2.1c0,0,0-0.4-0.9,0c0,0,0.1,0.4-4.5,0.2
		C128,83,126.2,83,126.1,83.8">
  </path>
  <path class="st3" d="M133.8,83.6l0,15.3c0,0,0.4,1.4,1,1.2c0,0,0.1-0.3,0.1-0.8l0.2-14.6C135.2,84.8,134.7,82.4,133.8,83.6">
  </path>
  <path class="st5" d="M133.8,83.6l0,15.3c0,0,0.4,1.4,1,1.2c0,0,0.1-0.3,0.1-0.8l0.2-14.6C135.2,84.8,134.7,82.4,133.8,83.6z">
  </path>
  <path class="st0" d="M127.9,88.2c-0.1-0.4,0.8-0.4,0.8-0.4l0.5,0.1c0.3-0.1,0.7,0.1,0.7,0.1c0.3,0.5-0.2,0.8-0.2,0.8l-0.2,0.6
		c0,0.5,0,5.1,0,5.1c0.1,0.2,0.5,0.7,0.5,0.7c0,0.4-0.5,0.3-0.5,0.3l-1.4,0c-0.4,0-0.3-0.5-0.3-0.5c0.5-0.2,0.6-1.1,0.6-1.1v-4.8
		L127.9,88.2z">
  </path>
  <path class="st0" d="M121.3,92.7l-0.1,1.5l0.4,0.7c0.3,0.4-0.2,0.7-0.2,0.7l-1.5-0.1c-0.3-0.1,0-0.6,0-0.6c0.4-0.2,0.4-0.9,0.4-0.9
		l0-2.8l0-2c0-0.2-0.4-0.7-0.4-0.7c-0.3,0-0.2-0.5-0.2-0.5c0.1-0.2,0.9-0.1,0.9-0.1h2c1.9,0.6,1.6,2,1.6,2c0.1,1.4-1.4,2-1.4,2
		l-0.1,0.8l1.4,2.2c0.2,0.2,0.2,0.4,0.2,0.4c-0.2,0.5-1,0-1,0l-1.7-2.7C121.6,92.3,121.3,92.7,121.3,92.7 M121.4,88.9
		c0,1.1,0,2.5,0,2.5c0.9,0.7,1.5-0.3,1.5-0.3c1.2-1.2,0-2.2-0.2-2.5c-0.2-0.3-1.2-0.1-1.2-0.1L121.4,88.9z">
  </path>
  <path class="st0" d="M111.2,111.5c0,0,0.3-0.1,0.4-0.4c0,0,1-0.1,1.2-0.2l3.2,0.2c0,0,3.2,0.2,4.5-0.7c0,0,0.5,0,0.8,0.1
		c0,0,0.7,0.1,0.9,0.4l1.8-0.1c0,0,1.1,0.3,1,1v0.9c0,0-0.2,1.7,0.3,1.8h1.4c0,0,1.2,0.5,1,1.2c0,0,0,1-1,1.2c0,0-1,0.3-1.4,0.2
		c0,0-0.3,0.4-0.4,1l-0.1,6.4c0,0-0.1,0.7,0.9,0.6c0,0,1.5-0.1,1.9,0.7c0,0,0.4,1.4-0.4,1.6l-0.6,0.3l-1.3,0.2c0,0-0.5,0-0.6,1v1.7
		c0,0,0,1.2-0.9,1.2l-1.4,0.1c0,0-0.3,0.3-1,0.1c0,0-8.2,0.1-8.5,0l-1,0.2c0,0-1.1,1-1.9,0.2l-0.7-0.5c0,0-0.5,0.1-0.7,0
		c-0.2,0-9.1,0.1-9.1,0.1s-1.9,0.2-2-0.4c0,0-0.2-2.5-0.1-2.8c0,0,0-0.7-0.4-0.8c0,0-1.9-0.1-1.9-0.3c0,0-1-0.7-0.7-1.5
		c0,0,0.3-1,1.4-1.1c0,0,1.6,0.2,1.6-0.2c0,0,0.1-0.3,0.1-0.8c0,0,0.1-5.8,0-6.2c0,0,0.1-0.7-0.5-0.7c0,0-0.7,0.2-1.1-0.1
		c0,0-1.2,0-1.4-0.9c0,0-0.2-0.6,0.1-1.1c0,0,0.5-1.1,2.1-0.7c0,0,0.9,0.2,1-0.4l0-2.3c0,0-0.2-0.6,1-1c0,0,1.5,0.4,2-0.3
		c0,0,0.5-1.1,1-0.3c0,0,0.9,0.9,3.4,0.8c0,0,4.4-0.3,4.5-0.2c0,0,1.1,0.2,1.4,0.5L111.2,111.5z">
  </path>
  <path class="st4" d="M111.2,111.5c0,0,0.3-0.1,0.4-0.4c0,0,1-0.1,1.2-0.2l3.2,0.2c0,0,3.2,0.2,4.5-0.7c0,0,0.5,0,0.8,0.2
		c0,0,0.7,0.1,0.9,0.4l1.8,0c0,0,1.1,0.3,1,1v0.9c0,0-0.2,1.7,0.3,1.8h1.4c0,0,1.2,0.5,1,1.2c0,0,0,1-1,1.2c0,0-1,0.3-1.4,0.2
		c0,0-0.3,0.4-0.4,1l-0.1,6.4c0,0-0.1,0.7,0.9,0.6c0,0,1.5-0.1,1.9,0.7c0,0,0.4,1.4-0.4,1.6l-0.6,0.3l-1.3,0.2c0,0-0.5,0-0.6,1v1.7
		c0,0,0,1.2-0.9,1.2l-1.4,0.1c0,0-0.3,0.3-1,0.1c0,0-8.2,0.1-8.5,0l-1,0.2c0,0-1.1,1-1.9,0.2l-0.7-0.5c0,0-0.5,0.1-0.7,0.1
		c-0.2-0.1-9.1,0.1-9.1,0.1s-1.9,0.2-2-0.4c0,0-0.2-2.5-0.1-2.8c0,0,0-0.7-0.4-0.8c0,0-1.9-0.1-1.9-0.3c0,0-1-0.7-0.7-1.5
		c0,0,0.3-1,1.4-1.1c0,0,1.6,0.2,1.6-0.2c0,0,0.1-0.3,0.1-0.8c0,0,0.1-5.8,0-6.2c0,0,0.1-0.7-0.5-0.7c0,0-0.7,0.2-1.1-0.1
		c0,0-1.2,0-1.4-0.9c0,0-0.2-0.6,0.1-1.1c0,0,0.5-1.1,2.1-0.7c0,0,0.9,0.2,1-0.4l0-2.3c0,0-0.2-0.6,1-1c0,0,1.6,0.4,2-0.3
		c0,0,0.5-1.1,1-0.3c0,0,0.9,0.9,3.4,0.8c0,0,4.4-0.3,4.5-0.2c0,0,1.1,0.2,1.4,0.5L111.2,111.5z">
  </path>
  <path class="st3" d="M112.5,130.6c0,0,0.6-0.3,1-0.2c0.4,0.1,6.1-0.1,6.1-0.1s2.5,0.2,2.9-0.1l0.6-0.2c0,0,0.2-0.3,0.2-0.7
		c0-0.4,0-1.7,0-1.7l0.1-0.5c0,0,0-0.5,0-13.4c0,0,0.2-1-0.4-1.6c0,0,0-0.4,0.2-0.3c0.2,0.1,0.1,0.1,0.1,0.1s0.9-0.2,1,0.1
		c0,0,0.4,1.2,0.1,1.8c0,0-0.1,1.4,0.6,1.4c0,0,0.3,0.3,0.9,0.1c0,0,1.3,0.1,1.3,0.5c0,0,0,0.9-0.9,0.7l-1.2,0.1
		c0,0-0.8,0.2-0.7,1.1c0.1,0.9,0,7.5,0,7.5s0,0.8,1.2,0.7c0,0,1.5-0.1,1.5,0.4c0,0,0.4,1-0.7,1c0,0-2,0-1.9,0.5c0,0-0.1,1.4-0.2,1.6
		c0,0,0.2,1.1,0,1.3c0,0-0.1,0.6-1.5,0.5c0,0-8.3,0-9.7,0C113.1,131.4,112.3,131.3,112.5,130.6">
  </path>
  <path class="st3" d="M111,129.7c0,0,0.8,0.1,0.8,0.9c0,0.8,0,1.2-0.4,1.3c-0.5,0.1-1,0-1.2-0.7C110.1,130.6,110.3,129.8,111,129.7">
  </path>
  <path class="st3" d="M112,129.3c0,0,0.9-0.6,1.2-0.5c0,0,4.4,0.3,5.8,0.1c1.4-0.2,0.5-0.1,0.5-0.1s1.2,0,1.5-0.4
		c0,0,0.3-0.1,0.5,0.2l0.7,0.8c0,0,0.1,0.5-0.8,0.4c0,0-7.9,0-8.1,0C113.3,129.9,111.8,130.1,112,129.3">
  </path>
  <path class="st5" d="M112,129.3c0,0,0.9-0.6,1.2-0.5c0,0,4.4,0.3,5.8,0.1c1.4-0.2,0.5-0.1,0.5-0.1s1.2,0,1.5-0.4
		c0,0,0.3-0.1,0.5,0.2l0.7,0.8c0,0,0.1,0.5-0.8,0.4c0,0-7.9,0-8.1,0C113.3,129.9,111.8,130.1,112,129.3z">
  </path>
  <path class="st3" d="M100.5,112.1c0,0,0.3,0,0.3,0.6l-0.1,14.6c0,0,0.1,1-0.7,1.6c0,0-0.4,0.5-0.4-0.3l0.2-14.9
		C99.7,113.7,99.8,112.6,100.5,112.1">
  </path>
  <path class="st5" d="M100.5,112.1c0,0,0.3,0,0.3,0.6l-0.1,14.6c0,0,0.1,1-0.7,1.6c0,0-0.4,0.5-0.4-0.3l0.2-14.9
		C99.7,113.7,99.8,112.6,100.5,112.1z">
  </path>
  <path class="st3" d="M99.7,112.2c0,0-0.6,1.1-0.5,1.3l0,3.2c0,0,0,2.1,0,2.3c0,0.2,0,6.4,0,6.4s0,1.2,0,1.5v2.6
		c0,0-0.1,1.2,0.8,0.9c0,0,8.5-0.2,9.1,0c0,0,0.8,0.1,0.5,0.5c0,0,0,0.3-0.5,0.2c0,0-4,0.4-7.7,0.2c0,0-2.4,0.1-2.6-0.1
		c0,0-0.4,0-0.4-1.5c0,0,0-1.3-0.1-1.5c0,0,0.1-0.7-1.1-0.8c0,0-1.7,0.3-1.7-0.7c0,0,0.2-0.7,1.9-0.6c0,0,1.2,0.2,1-0.8l0.1-7.2
		c0,0,0.1-1.3-0.7-1.3c0,0-0.8,0-1,0c0,0-1.4,0-1.3-0.8c0,0,0.5-0.9,1.9-0.7c0,0,1.1,0.2,1.1-1c0,0,0-2.5,0.5-2.6
		C98.8,111.8,100,111.8,99.7,112.2">
  </path>
  <path class="st3" d="M101.2,128.2c0,0,0.7,0.7,1.8,0.7l6.6,0.1c0,0,0.7,0.1,0.7,0.4c0,0-0.1,0.6-1,0.4l-8-0.1l-0.9,0.1
		c0,0-0.6-0.1,0.3-1.2L101.2,128.2z">
  </path>
  <path class="st5" d="M101.2,128.2c0,0,0.7,0.7,1.8,0.7l6.6,0.1c0,0,0.7,0.1,0.7,0.4c0,0-0.1,0.6-1,0.4l-8-0.1l-0.9,0.1
		c0,0-0.6-0.1,0.3-1.2L101.2,128.2z">
  </path>
  <path class="st3" d="M121.5,127.6c0,0,0.6,1.1,0.9,1.3c0,0,0.5,0.6,0.4-0.5l0.1-14c0,0-0.1-0.5,0-1.3l-0.6-1.1c0,0-0.6-0.5-0.6,0.3
		l-0.1,14.9L121.5,127.6z">
  </path>
  <path class="st5" d="M121.5,127.6c0,0,0.6,1.1,0.9,1.3c0,0,0.5,0.6,0.4-0.5l0.1-14c0,0-0.1-0.5,0-1.3l-0.6-1.1c0,0-0.6-0.5-0.6,0.3
		l-0.1,14.9L121.5,127.6z">
  </path>
  <path class="st3" d="M110.8,120.9c0,0,0,1.2-0.1,2.3c-0.1,0.6,0.2,3.4,0,4.9c0,0,0,0.5-1.1,0.1c0,0-6.2,0.1-6.4-0.1
		c0,0-1.7,0.1-1.8-0.8c0,0,0.2-6.6,0.1-6.9c0,0-0.1-3.6,0-4c0,0,0.1-3.3,0-3.7c0,0,0-0.8-0.1-1.2c0,0,0-0.5,0.8-0.2
		c0,0,0.3,0.5,1.9,0.3c0,0,1.2,0.2,2.3,0c0,0,2.5-0.2,3.1,0c0,0,1-0.2,1.3,0.9l0,3l0.3,1l0.3-0.2l0.1-0.7l0-3.2c0,0,0.2-0.6,1-0.7
		c0,0,1.2-0.1,1.4,0c0.2,0.1,2.8,0.2,3.5,0.1c0.7-0.1,0.9,0.5,3.1-0.6c0,0,0.6,0,0.6,0.4c0,0-0.2,4.1,0,4.9c0,0,0,7.6-0.2,8.1
		l0.1,2.4c0,0,0.1,1.1-1.6,1.2c0,0,1.1,0.1-5.6,0c0,0-1.1-0.1-2.2,0.5c0,0-0.2,0-0.2-0.7c0,0,0.2-2.3,0-4.5l-0.1-2.5L110.8,120.9z">
  </path>
  <path class="st0" d="M106.4,117.5c0,0,0.1,3.6,0,4.1l0,0.8c0,0,0.2,0.5,0.5,0.7c0,0,0.2,0.7-0.3,0.6c0,0-1.2-0.1-1.5-0.1
		c0,0-0.7,0,0-0.9c0,0,0.2-0.3,0.2-1.2c0,0,0-4.1,0.1-4.3c0,0,0.1-0.5-0.2-0.7l-0.6,0l-0.7,0.7c0,0-0.1,0.7-0.5,0v-0.4l0.4-1.2
		l0.3-0.1c0,0,0.4,0.3,0.8,0.4h2.3l0.8-0.4c0,0,0.3,0.1,0.2,0.5c0,0,0.1,1.1-0.5,1.3c0,0-0.4-0.1-0.6-0.7
		C107.1,116.7,106.4,116.4,106.4,117.5">
  </path>
  <path class="st0" d="M117.1,116.2c0,0-1.8-0.1-1.9,1.8c0,0-0.2,1.4,1.8,2.2c0,0,1.5,0.7,1.4,1.6c0,0-0.2,1.6-1.8,0.8
		c0,0-0.8-0.4-0.7-0.8c0,0-0.2-0.5-0.5-0.4c0,0-0.3,0.1-0.2,1.7c0,0,0,0.6,0.7,0l0.4,0.1c0,0,1.3,1.1,2.4-0.2c0,0,1.2-1.1,0.3-2.5
		c0,0-0.6-1-1.7-1.5c0,0-1.1-0.5-1.3-1.3c0,0,0.3-1.5,1.6-0.7c0,0,0.5,0.6,0.8,0.7c0,0,0.4,0,0.3-0.9l-0.1-0.7c0,0-0.1-0.5-0.8,0
		C117.9,116.2,117.3,116.4,117.1,116.2">
  </path>
  <path class="st0" d="M111.2,115.2c0.3,0.2,0.4,0.7,0.4,0.7c1,2.6,1.8,6.3,1.8,6.3c0.2,0.5,0.7,0.9,0.7,0.9c0.8,0.3,0,0.5,0,0.5
		c-0.3,0.1-1.5,0-1.5,0c-0.6-0.1-0.3-0.3-0.3-0.3c0.2-0.2,0-1.2,0-1.2c0-0.4-0.5-1-0.5-1c-0.2-0.1-0.5,0.3-0.5,0.3s-0.5,0.2-0.6,0
		c0-0.2-0.4-0.4-0.4-0.4c-0.6,0-0.8,1.5-0.8,1.5c0.3,1.2,0,1,0,1c-0.3,0.4-1.2,0.1-1.2,0.1c-0.4-0.1-0.1-0.4-0.1-0.4
		c0.5-0.1,0.7-0.7,0.7-0.7c0.2-0.3,1.8-6.6,1.8-6.6C110.8,115.5,110.9,114.9,111.2,115.2 M110.4,118.4c-0.1,0.2-0.4,1.6-0.4,1.6
		l0.3,0.5c0,0,0.8,0,1.1,0c0.3,0,0.3-0.2,0.3-0.5c0-0.2-0.5-1.7-0.5-1.7l-0.2-0.3L110.4,118.4z">
  </path>
  <path class="st0" d="M98.1,103.4c0,0-0.5,1.7-2.9,0l-8.1-0.2c0,0-1.1,0.3-1.2-0.8c0,0,0.2-2.2,0.1-2.4c0,0,0-0.6-1-0.6
		c0,0-1.6,0.2-1.7-1.3c0,0-0.3-1.6,2-1.5c0,0,0.7,0.3,0.8-0.6c0,0-0.1-6.3,0-6.8c0,0,0.2-0.6-0.9-0.7c0,0-1.6,0.3-1.8-0.7
		c0,0-0.1-1.6,1-1.7c0,0,1.3,0.1,1.6-0.2c0,0,0.3,0.2,0.2-1l0-2c0,0,0.1-0.5,1-0.5c0,0,1.5,0.1,1.7,0c0,0,0.3-0.4,0.4-0.6
		c0,0,0.8,0,0.9,0.1c0,0,1.2,0.8,5.6,0.5c0,0,0.7,0,0.8,0.2c0,0,0.8,0.6,1.3-0.1c0,0,0.7-0.1,2.9-0.1c0,0,2.4,0.6,4-0.7l0.5,0.1
		c0,0,0.7,1.1,1.2,0.8c0,0,1.5-0.1,1.7,0.1c0,0,0.5,0.7,0.2,2.6c0,0-0.3,0.8,1.1,0.8c0,0,1.6-0.3,1.4,1.2c0,0,0.4,1.7-2.2,1.5
		c0,0-0.3,0.5-0.3,0.8c0,0,0,5.5-0.1,6.2c0,0,0,0.9,1.1,0.8c0,0,1.6-0.1,1.6,1.3c0,0,0.2,1.8-2,1.5c0,0-0.7,0.1-0.8,0.5l-0.1,2.4
		c0,0,0.1,1.2-1.3,0.9c-0.2,0-7.6,0.1-8.2,0C98.5,103.3,98.2,103.2,98.1,103.4">
  </path>
  <path class="st4" d="M98.1,103.4c0,0-0.5,1.7-2.9,0l-8.1-0.2c0,0-1.1,0.3-1.2-0.8c0,0,0.2-2.2,0.1-2.4c0,0,0-0.6-1-0.6
		c0,0-1.6,0.2-1.7-1.3c0,0-0.3-1.6,2-1.5c0,0,0.7,0.3,0.8-0.6c0,0-0.1-6.3,0-6.8c0,0,0.2-0.6-0.9-0.7c0,0-1.6,0.3-1.8-0.7
		c0,0-0.1-1.6,1-1.7c0,0,1.3,0.1,1.6-0.2c0,0,0.3,0.2,0.2-1l0-2c0,0,0.1-0.5,1-0.5c0,0,1.5,0.1,1.7,0c0,0,0.3-0.4,0.4-0.6
		c0,0,0.8,0,0.9,0.1c0,0,1.2,0.8,5.6,0.5c0,0,0.7,0,0.8,0.2c0,0,0.8,0.6,1.3-0.1c0,0,0.7-0.1,2.9-0.1c0,0,2.4,0.6,4-0.7l0.5,0.1
		c0,0,0.7,1.1,1.2,0.8c0,0,1.5-0.1,1.7,0.1c0,0,0.5,0.7,0.2,2.6c0,0-0.3,0.8,1.1,0.8c0,0,1.6-0.3,1.4,1.2c0,0,0.4,1.7-2.2,1.5
		c0,0-0.3,0.5-0.3,0.8c0,0,0,5.5-0.1,6.2c0,0,0,0.9,1.1,0.8c0,0,1.6-0.1,1.6,1.3c0,0,0.2,1.8-2,1.5c0,0-0.7,0.1-0.8,0.5l-0.1,2.4
		c0,0,0.1,1.2-1.3,0.9c-0.2,0-7.6,0.1-8.2,0C98.5,103.3,98.2,103.2,98.1,103.4z">
  </path>
  <path class="st3" d="M88.9,83.4c0,0,0.1,1,0.1,1.2c0,0.2-0.1,14-0.1,14s0.1,1.1-0.8,1.6c0,0-0.2,0.1-0.3-0.6l0.1-14.6
		C87.9,85.1,88,83.3,88.9,83.4">
  </path>
  <path class="st5" d="M88.9,83.4c0,0,0.1,1,0.1,1.2c0,0.2-0.1,14-0.1,14s0.1,1.1-0.8,1.6c0,0-0.2,0.1-0.3-0.6l0.1-14.6
		C87.9,85.1,88,83.3,88.9,83.4z">
  </path>
  <path class="st3" d="M87.3,100.4c0,0,0.1-13.7,0-13.9c0-0.2,0,0.2,0,0.2s-0.1-2.4,0.5-3.3c0,0-0.2-0.8-1.3,0.2l0,2c0,0,0,1.1-1,1.1
		c0,0-1.2-0.1-1.7,0.5c0,0-0.3,1.1,0.8,0.9c0,0,1.7,0,1.8,0.7L86.4,96c0,0,0.4,1.2-1,1.2c0,0-1.6-0.1-1.6,0.9c0,0,0.3,0.9,1.7,0.6
		c0,0,1,0.2,1,1.2v1.8c0,0-0.1,0.7,0.9,0.8h7.6c0,0,0.4,0.1,0.4-0.4c0,0-0.1-0.4-0.6-0.4l-6.3-0.1C88.4,101.6,87.4,101.9,87.3,100.4
		">
  </path>
  <path class="st3" d="M88.6,100.5c0,0-0.2,0.7,0.5,0.5h5l1.4,0.3c0,0,1.4-0.3,0-1.1c0,0-4.5,0-4.9,0c0,0-0.9-0.2-1.1-0.3
		C89.5,99.9,89,99.7,88.6,100.5">
  </path>
  <path class="st5" d="M88.6,100.5c0,0-0.2,0.7,0.5,0.5h5l1.4,0.3c0,0,1.4-0.3,0-1.1c0,0-4.5,0-4.9,0c0,0-0.9-0.2-1.1-0.3
		C89.5,99.9,89,99.7,88.6,100.5z">
  </path>
  <path class="st3" d="M96.9,101.2c0,0-0.9,0-0.9,1.2c0,0,0.1,0.9,1.1,0.9c0,0,0.9-0.1,0.8-1.1C97.9,102.2,97.3,101,96.9,101.2">
  </path>
  <path class="st3" d="M97.6,100.7c0,0,0.4-0.5,0.7-0.5c0,0,4.8,0.4,5.7-0.1c0,0,0.7-0.1,0.9,0c0,0,0.7,0.6,0.7,0.9
		c0,0,0,0.4-0.9,0.2c0,0-5.5,0-5.8,0C98.9,101.2,97.4,101.6,97.6,100.7">
  </path>
  <path class="st5" d="M97.6,100.7c0,0,0.4-0.5,0.7-0.5c0,0,4.8,0.4,5.7-0.1c0,0,0.7-0.1,0.9,0c0,0,0.7,0.6,0.7,0.9
		c0,0,0,0.4-0.9,0.2c0,0-5.5,0-5.8,0C98.9,101.2,97.4,101.6,97.6,100.7z">
  </path>
  <path class="st3" d="M98.3,102.2c0,0,0-0.4,0.7-0.4l6.8-0.1c0,0,0.6,0.3,0.6-0.8c0,0,0.2-5.3,0.3-11.1c0-1.7,0.1-3.5,0-5.2
		c0,0-0.1-0.7-0.3-0.9c0,0,0-0.8,0.8-0.5c0,0,0.7,0,0.5,1.2l0.1,1.7c0,0-0.1,0.7,1.2,0.5c0,0,1.3,0.2,1.4,0.7c0,0,0.4,1-1.2,0.9H108
		c0,0-0.5,0.3-0.3,0.9l-0.1,7c0,0-0.1,1.2,1.1,1.2c0,0,1.2-0.1,1.5,0.3c0,0,0.8,1.2-1,1.1c0,0-1.1,0-1.4,0.1c0,0-0.2,0.2-0.3,2.5
		c0,0,0.1,1.4-0.9,1.2c0,0-6.7,0.1-7.4-0.1C99.1,102.5,98.4,102.7,98.3,102.2">
  </path>
  <path class="st3" d="M89.6,83l-0.1,15.6c0,0,0,0.7,1.2,0.9c0,0,1.4,0.1,1.7,0c0,0,0.9,0,3.3,0.1c0,0,0.6,0.6,0.6-0.1
		c0,0,0.4-12.6,0.2-15.2c0,0,0-1.1-0.9-1.2c0,0-3.7,0.3-4,0l-1.5-0.4C90.1,82.6,89.6,82.6,89.6,83">
  </path>
  <path class="st3" d="M105,83.6l0,15.3c0,0,0.4,1.4,1,1.2c0,0,0.1-0.3,0.1-0.8l0.2-14.6C106.3,84.8,105.8,82.4,105,83.6">
  </path>
  <path class="st5" d="M105,83.6l0,15.3c0,0,0.4,1.4,1,1.2c0,0,0.1-0.3,0.1-0.8l0.2-14.6C106.3,84.8,105.8,82.4,105,83.6z">
  </path>
  <path class="st3" d="M97.3,83.7c0,0-0.1,7.3-0.1,7.6l-0.1,6.2l-0.2,2.1c0,0,0.3,0.4,0.5,0.1c0,0,1.6-0.4,2.5-0.2
		c0,0,3.1,0.3,3.7-0.2c0,0,0.5,0.2,0.6-0.5c0,0,0.2-13.6,0.1-13.8c0,0,0.2-1.9,0.1-2.1c0,0-0.1-0.4-0.9-0.1c0,0,0.1,0.4-4.5,0.2
		C99.1,83,97.4,82.9,97.3,83.7">
  </path>
  <path class="st0" d="M95.8,88.2l-0.4,0.9c0,0-1.1,4.7-1.6,5.7c0,0-0.1,1-0.9,0.2c0,0-1.9-6-2-6.2l-0.6-0.4c0,0-0.4-0.5,0.3-0.6
		l1.8,0c0,0,0.6,0.5-0.2,1c0,0,0.1,0.8,1.1,3.7c0,0,0.3,1.1,0.6,0.3l1-3.4l-0.3-1c0,0-0.3-0.5,0.1-0.5
		C94.6,87.9,95.6,87.8,95.8,88.2">
  </path>
  <path class="st0" d="M98.6,89l-0.1,5.1l-0.1,0.4c0,0-0.5,0.6-0.1,0.7c0,0-0.4,0.3,3.1,0.3c0,0,1.4,0.2,1-1.5c0,0-0.1-0.6-0.6,0.3
		c0,0-0.1,0.8-1.9,0.5c0,0-0.4-0.3-0.4-0.7V92c0,0-0.1-0.5,0.8-0.5c0,0,0.9,0.6,1.1,0.3c0,0,0.3-0.8,0-1.3c0,0-0.4,0-0.5,0.1
		c0,0-0.3,0.6-1.1,0.2c0,0-0.4-0.8-0.1-1.4c0,0-0.1-1.2,0.7-1.1c0,0,1,0.2,1.1,0.5c0,0,0.2,0.6,0.5-0.1l-0.2-0.8
		c0,0-0.1-0.3-0.4-0.2c0,0-1.6,0.2-1.8,0L98.1,88c0,0-0.2,0.5,0.4,0.7C98.4,88.7,98.6,88.8,98.6,89">
  </path>
 </g>
</svg>